<svg width="320" height="220" viewBox="0 0 320 220" fill="none" xmlns="http://www.w3.org/2000/svg">
  <rect width="320" height="220" rx="28" fill="#F7F2EC"/>
  <rect x="95" y="26" width="130" height="168" rx="24" fill="#FFFDFC" stroke="#E8DED2"/>
  <rect x="116" y="132" width="40" height="10" rx="5" fill="#CBA989"/>
  <rect x="120" y="94" width="8" height="40" rx="4" fill="#CBA989"/>
  <rect x="148" y="94" width="8" height="40" rx="4" fill="#CBA989"/>
  <g transform="translate(174 64)">
    <circle cx="0" cy="0" r="14" fill="#17303A"/>
    <g>
      <animateTransform attributeName="transform" type="translate" values="-12 18;0 0;-12 18" dur="2.3s" repeatCount="indefinite"/>
      <line x1="0" y1="18" x2="0" y2="76" stroke="#17303A" stroke-width="12" stroke-linecap="round"/>
      <line x1="0" y1="36" x2="-28" y2="52" stroke="#17303A" stroke-width="10" stroke-linecap="round"/>
      <line x1="0" y1="36" x2="30" y2="46" stroke="#17303A" stroke-width="10" stroke-linecap="round"/>
      <line x1="0" y1="76" x2="-24" y2="108" stroke="#17303A" stroke-width="10" stroke-linecap="round"/>
      <line x1="-24" y1="108" x2="-2" y2="138" stroke="#17303A" stroke-width="10" stroke-linecap="round"/>
      <line x1="0" y1="76" x2="20" y2="108" stroke="#17303A" stroke-width="10" stroke-linecap="round"/>
      <line x1="20" y1="108" x2="14" y2="138" stroke="#17303A" stroke-width="10" stroke-linecap="round"/>
    </g>
  </g>
  <text x="160" y="205" text-anchor="middle" fill="#6E7B8E" font-family="Inter, Arial, sans-serif" font-size="14" font-weight="700">Sit to Stand</text>
</svg>
